<?xml version="1.0" encoding="iso-8859-1"?>
<!-- Uploaded to: SVG Repo, www.svgrepo.com, Generator: SVG Repo Mixer Tools -->
<svg version="1.1" id="Layer_1" xmlns="http://www.w3.org/2000/svg" xmlns:xlink="http://www.w3.org/1999/xlink" 
	 viewBox="0 0 512 512" xml:space="preserve">
<rect x="65.829" y="365.714" style="fill:#A7AFF3;" width="105.535" height="146.286"/>
<rect x="115.639" y="365.714" style="fill:#7885EB;" width="55.724" height="146.286"/>
<rect x="340.637" y="365.714" style="fill:#A7AFF3;" width="105.535" height="146.286"/>
<rect x="393.404" y="365.714" style="fill:#7885EB;" width="52.767" height="146.286"/>
<polygon style="fill:#FF738E;" points="365.192,300.931 365.129,300.931 365.129,512 146.808,512 146.808,300.931 176.807,248.968 
	194.905,217.621 256,111.804 317.095,217.621 335.193,248.968 "/>
<polygon style="fill:#FF3C62;" points="365.192,300.931 365.129,300.931 365.129,512 256,512 256,111.804 317.095,217.621 
	335.193,248.968 "/>
<polygon style="fill:#DFCCBE;" points="292.571,32.392 292.571,63.739 271.673,63.739 271.673,139.034 240.327,139.034 
	240.327,63.739 219.429,63.739 219.429,32.392 240.327,32.392 240.327,0 271.673,0 271.673,32.392 "/>
<polygon style="fill:#FFFFFF;" points="335.193,248.968 176.807,248.968 194.905,217.621 317.095,217.621 "/>
<rect x="245.551" y="307.378" style="fill:#F1F1F1;" width="20.898" height="20.898"/>
<g>
	<path style="fill:#DFCCBE;" d="M288.914,394.449V512h-65.829V394.449c0-9.091,3.678-17.324,9.634-23.28s14.19-9.634,23.28-9.634
		C274.181,361.535,288.914,376.268,288.914,394.449z"/>
	<rect x="256" y="307.378" style="fill:#DFCCBE;" width="10.449" height="20.898"/>
</g>
<path style="fill:#C9AD91;" d="M288.914,394.449V512H256V361.535C274.181,361.535,288.914,376.268,288.914,394.449z"/>
<polygon style="fill:#DFCCBE;" points="335.193,248.968 256,248.968 256,217.621 317.095,217.621 "/>
<polygon style="fill:#C9AD91;" points="292.571,32.392 292.571,63.739 271.673,63.739 271.673,139.034 256,139.034 256,0 271.673,0 
	271.673,32.392 "/>
</svg>